<?xml version="1.0" encoding="UTF-8" standalone="no"?>
<svg width="100%" height="100%" viewBox="0 0 500 500" version="1.1" xmlns="http://www.w3.org/2000/svg" xmlns:xlink="http://www.w3.org/1999/xlink" xml:space="preserve" style="fill-rule:evenodd;clip-rule:evenodd;stroke-linejoin:round;stroke-miterlimit:2;">
    <g transform="matrix(1,0,0,1,5.386,-14.8115)">
        <path d="M459.605,71.631L459.605,457.992C459.605,470.029 449.832,479.803 437.794,479.803L51.434,479.803C39.396,479.803 29.623,470.029 29.623,457.992L29.623,71.631C29.623,59.594 39.396,49.82 51.434,49.82L437.794,49.82C449.832,49.82 459.605,59.594 459.605,71.631ZM444.111,117.145L45.117,117.145L45.117,128.977L444.111,128.977L444.111,117.145Z" style="fill:rgb(39,39,39);"/>
    </g>
    <g transform="matrix(1,0,0,1,5.386,-14.8115)">
        <path d="M459.605,71.631L459.605,117.145L29.623,117.145L29.623,71.631C29.623,59.594 39.396,49.82 51.434,49.82L437.794,49.82C449.832,49.82 459.605,59.594 459.605,71.631Z" style="fill:rgb(91,91,91);"/>
    </g>
    <g id="Handle" transform="matrix(0.930481,0,0,1,18.2881,0)">
        <rect x="47.587" y="132.748" width="402.872" height="15.44" style="fill:rgb(91,91,91);"/>
    </g>
    <g id="Dails" transform="matrix(0.913043,0,0,0.913043,42.6529,-0.594703)">
        <path d="M75.517,57.281C85.773,57.281 94.099,65.607 94.099,75.863C94.099,86.118 85.773,94.445 75.517,94.445C65.262,94.445 56.936,86.118 56.936,75.863C56.936,65.607 65.262,57.281 75.517,57.281ZM378.672,57.281C388.927,57.281 397.253,65.607 397.253,75.863C397.253,86.118 388.927,94.445 378.672,94.445C368.416,94.445 360.09,86.118 360.09,75.863C360.09,65.607 368.416,57.281 378.672,57.281Z" style="fill:rgb(27,27,27);"/>
    </g>
    <g>
        <g id="fan" transform="matrix(1,0,0,1,-25.7601,33.4194)">
            <g transform="matrix(1,0,0,1,3.17824,0.00102044)">
                <path d="M240.596,276.923l-49.233,-2.096c-4.912,-0.209 -8.957,-3.928 -9.579,-8.804l-1.258,-9.869l60.413,-5.587l-33.331,-36.295c-3.325,-3.621 -3.556,-9.111 -0.548,-12.998l6.089,-7.869l46.669,38.768l2.096,-49.233c0.21,-4.911 3.928,-8.957 8.804,-9.578l9.869,-1.259l5.587,60.413l36.296,-33.33c3.62,-3.325 9.11,-3.557 12.998,-0.548l7.868,6.089l-38.768,46.669l49.233,2.096c4.911,0.209 8.957,3.927 9.579,8.804l1.258,9.869l-60.413,5.586l33.331,36.296c3.325,3.621 3.556,9.111 0.548,12.998l-6.089,7.868l-46.669,-38.768l-2.097,49.234c-0.209,4.911 -3.927,8.956 -8.803,9.578l-9.869,1.258l-5.587,-60.413l-36.296,33.331c-3.62,3.325 -9.11,3.556 -12.998,0.548l-7.868,-6.089l38.768,-46.669Z" style="fill:rgb(167,167,167);"/>
            </g>
            <g transform="matrix(-0.995164,0.0982324,-0.100308,-1.01619,590.953,385.608)">
                <path d="M285.062,172.129l-0.281,65.943l-1.049,0.029l0.03,-66.088l1.3,0.116Zm33.353,-46.896l0.282,-65.944l1.049,-0.029l-0.031,66.089l-1.3,-0.116Zm-40.62,7.116l-67.336,-0.276l-0.03,-1.027l67.485,0.03l-0.119,1.273Zm47.887,32.663l67.337,0.276l0.03,1.027l-67.485,-0.03l0.118,-1.273Zm-52.666,-11.299l-47.813,46.434l-0.763,-0.706l47.741,-46.71l0.835,0.982Zm57.445,-10.064l47.814,-46.434l0.763,0.705l-47.741,46.711l-0.836,-0.982Zm-33.861,-23.096l-47.415,-46.825l0.721,-0.747l47.697,46.753l-1.003,0.819Zm10.277,56.256l47.415,46.824l-0.72,0.747l-47.698,-46.753l1.003,-0.818Z" style="fill:rgb(39,39,39);"/>
            </g>
            <g id="Inner-segment" transform="matrix(0.781201,-0.0644974,0.0644974,0.781201,43.2984,75.5838)">
                <path d="M254.263,257.846l-47.549,-0c-1.256,-0 -2.276,-1.02 -2.276,-2.276c0,-1.256 1.02,-2.276 2.276,-2.276l49.456,0c2.059,-3.703 5.139,-6.762 8.857,-8.797l-33.625,-33.625c-0.888,-0.888 -0.888,-2.33 0,-3.218c0.888,-0.888 2.331,-0.888 3.219,-0l34.967,34.967c1.961,-0.561 4.032,-0.862 6.172,-0.862c2.192,0 4.312,0.316 6.315,0.904l-0,-47.549c-0,-1.256 1.019,-2.275 2.275,-2.275c1.256,-0 2.276,1.019 2.276,2.275l0,49.456c3.703,2.06 6.762,5.139 8.798,8.857l33.624,-33.624c0.888,-0.889 2.33,-0.889 3.219,-0c0.888,0.888 0.888,2.33 -0,3.218l-34.968,34.967c0.562,1.961 0.862,4.032 0.862,6.172c0,2.193 -0.315,4.312 -0.903,6.315l47.548,-0c1.256,-0 2.276,1.02 2.276,2.276c-0,1.256 -1.02,2.275 -2.276,2.275l-49.455,0c-2.06,3.703 -5.139,6.763 -8.857,8.798l33.624,33.624c0.888,0.889 0.888,2.331 -0,3.219c-0.888,0.888 -2.33,0.888 -3.218,-0l-34.968,-34.968c-1.961,0.562 -4.032,0.863 -6.172,0.863c-2.192,-0 -4.311,-0.316 -6.314,-0.904l-0,47.548c-0,1.256 -1.02,2.276 -2.276,2.276c-1.256,0 -2.276,-1.02 -2.276,-2.276l0,-49.455c-3.703,-2.06 -6.762,-5.139 -8.798,-8.857l-33.624,33.624c-0.888,0.888 -2.33,0.888 -3.218,0c-0.888,-0.888 -0.888,-2.33 -0,-3.218l34.967,-34.968c-0.561,-1.961 -0.862,-4.031 -0.862,-6.172c-0,-2.192 0.315,-4.311 0.904,-6.314Zm21.497,-11.607c-9.891,0 -17.921,8.03 -17.921,17.921c0,9.891 8.03,17.921 17.921,17.921c9.891,0 17.921,-8.03 17.921,-17.921c0,-9.891 -8.03,-17.921 -17.921,-17.921Z" style="fill:rgb(206,206,206);"/>
            </g>
        </g>
    </g>
    <path d="M437.433,179.986l-0,235.188l-374.866,0l0,-235.188l374.866,-0Zm-184.088,85.116c-3.72,-3.726 -8.032,-1.489 -7.769,2.082c0.263,3.572 3.733,11.499 5.028,11.152c1.295,-0.347 5.609,-10.36 2.741,-13.234Zm-6.69,64.955c3.72,3.726 8.032,1.49 7.769,-2.081c-0.263,-3.572 -3.733,-11.499 -5.028,-11.152c-1.295,0.347 -5.609,10.36 -2.741,13.233Zm35.822,-29.132c3.727,-3.72 1.49,-8.032 -2.081,-7.769c-3.572,0.263 -11.499,3.733 -11.152,5.028c0.347,1.294 10.36,5.609 13.233,2.741Zm-64.954,-6.69c-3.727,3.719 -1.49,8.032 2.081,7.769c3.572,-0.263 11.499,-3.733 11.152,-5.028c-0.347,-1.295 -10.36,-5.609 -13.233,-2.741Zm57.807,-17.255c0.005,-5.265 -4.626,-6.733 -6.965,-4.022c-2.34,2.712 -5.492,10.771 -4.331,11.441c1.161,0.671 11.293,-3.359 11.296,-7.419Zm30.093,81.073c5.265,0.004 6.733,-4.627 4.021,-6.966c-2.711,-2.339 -14.082,-3.487 -20.29,-7.071c-13.619,-7.863 -13.736,-13.348 -17.287,-14.625c-2.58,-0.927 -7.072,1.964 -4.022,6.966c2.203,3.612 10.977,11.092 17.24,14.708c6.213,3.588 16.278,6.984 20.338,6.988Zm-80.082,17.761c2.628,4.562 7.372,3.518 8.043,-0c0.67,-3.518 -4.022,-13.939 -4.022,-21.107c0,-15.726 4.692,-18.57 4.022,-22.284c-0.487,-2.698 -5.237,-5.143 -8.043,-0c-2.027,3.714 -4.119,15.052 -4.119,22.284c0,7.174 2.092,17.589 4.119,21.107Zm21.088,3.716c3.72,3.727 8.032,1.49 7.769,-2.081c-0.263,-3.572 -7.492,-12.423 -9.347,-19.347c-4.07,-15.19 -0.274,-19.152 -1.883,-22.566c-1.169,-2.48 -6.389,-3.612 -7.769,2.082c-0.997,4.112 -0.082,15.605 1.79,22.59c1.856,6.93 6.572,16.449 9.44,19.322Zm41.454,-9.194c5.084,1.368 7.701,-2.725 5.687,-5.687c-2.013,-2.961 -12.7,-7.013 -17.768,-12.081c-11.12,-11.12 -9.814,-16.449 -12.914,-18.601c-2.252,-1.564 -7.339,0.066 -5.687,5.687c1.193,4.06 7.731,13.556 12.845,18.669c5.073,5.074 13.916,10.959 17.837,12.013Zm44.068,-69.185c3.726,-3.72 1.489,-8.033 -2.082,-7.769c-3.572,0.263 -12.423,7.492 -19.347,9.347c-15.19,4.07 -19.152,0.274 -22.566,1.883c-2.48,1.169 -3.612,6.389 2.082,7.769c4.112,0.997 15.605,0.082 22.59,-1.79c6.931,-1.857 16.449,-6.572 19.323,-9.44Zm-9.194,-41.454c1.367,-5.084 -2.726,-7.701 -5.688,-5.687c-2.961,2.013 -7.012,12.7 -12.081,17.768c-11.12,11.12 -16.449,9.814 -18.601,12.914c-1.563,2.252 0.066,7.339 5.688,5.687c4.059,-1.193 13.555,-7.732 18.669,-12.845c5.073,-5.073 10.958,-13.916 12.013,-17.837Zm-28.689,-31.303c-1.358,-5.087 -6.211,-5.306 -7.769,-2.082c-1.558,3.225 0.276,14.505 -1.579,21.429c-4.07,15.19 -9.338,16.723 -9.652,20.484c-0.228,2.732 3.727,6.323 7.769,2.081c2.919,-3.062 7.874,-13.473 9.745,-20.458c1.857,-6.93 2.533,-17.532 1.486,-21.454Zm-26.307,149.268c4.557,2.637 8.144,-0.64 6.966,-4.021c-1.179,-3.382 -10.452,-10.061 -14.037,-16.269c-7.862,-13.619 -5.221,-18.428 -7.659,-21.309c-1.77,-2.093 -7.106,-1.836 -6.965,4.021c0.101,4.23 3.959,15.095 7.575,21.358c3.588,6.213 10.606,14.187 14.12,16.22Zm-14.19,-162.033c-3.72,-3.726 -8.032,-1.49 -7.769,2.082c0.263,3.571 7.492,12.423 9.347,19.347c4.07,15.19 0.274,19.151 1.883,22.565c1.169,2.481 6.389,3.613 7.769,-2.081c0.997,-4.112 0.082,-15.605 -1.79,-22.591c-1.856,-6.93 -6.572,-16.448 -9.44,-19.322Zm11.927,53.214c-2.014,-4.864 -6.854,-4.445 -7.975,-1.044c-1.121,3.401 -0.943,12.053 0.386,12.227c1.33,0.174 9.142,-7.431 7.589,-11.183Zm5.102,54.067c5.265,0.005 6.733,-4.626 4.021,-6.966c-2.711,-2.339 -10.77,-5.491 -11.44,-4.33c-0.671,1.161 3.359,11.292 7.419,11.296Zm-41.2,-50.66c-5.265,-0.005 -6.733,4.626 -4.021,6.965c2.711,2.34 10.77,5.491 11.44,4.33c0.671,-1.16 -3.359,-11.292 -7.419,-11.295Zm-4.73,45.93c-0.005,5.265 4.626,6.733 6.965,4.021c2.34,-2.711 5.492,-10.77 4.331,-11.441c-1.161,-0.67 -11.293,3.36 -11.296,7.42Zm54.066,-5.102c4.865,-2.014 4.446,-6.854 1.045,-7.975c-3.402,-1.121 -12.053,-0.943 -12.227,0.386c-0.174,1.329 7.431,9.142 11.182,7.589Zm2.543,-24.859c2.015,-4.864 -1.704,-7.99 -4.901,-6.378c-3.198,1.612 -9.19,7.856 -8.373,8.919c0.817,1.063 11.719,1.21 13.274,-2.541Zm-40.64,-21.918c-4.864,-2.015 -7.99,1.703 -6.377,4.901c1.612,3.198 7.856,9.19 8.918,8.373c1.063,-0.817 1.21,-11.719 -2.541,-13.274Zm-19.375,15.781c-4.865,2.014 -4.446,6.854 -1.045,7.975c3.402,1.121 12.053,0.943 12.227,-0.387c0.174,-1.329 -7.431,-9.141 -11.182,-7.588Zm13.238,44.234c2.014,4.865 6.854,4.445 7.975,1.044c1.121,-3.401 0.943,-12.053 -0.386,-12.227c-1.33,-0.174 -9.142,7.432 -7.589,11.183Zm-15.781,-19.375c-2.015,4.864 1.704,7.989 4.901,6.377c3.198,-1.612 9.19,-7.856 8.373,-8.919c-0.817,-1.063 -11.719,-1.209 -13.274,2.542Zm100.465,34.706c5.087,-1.358 5.306,-6.211 2.082,-7.769c-3.225,-1.557 -14.505,0.277 -21.429,-1.578c-15.19,-4.07 -16.723,-9.338 -20.484,-9.652c-2.732,-0.228 -6.323,3.727 -2.082,7.769c3.063,2.919 13.474,7.873 20.459,9.745c6.93,1.857 17.531,2.533 21.454,1.485Zm9.048,-19.408c4.562,-2.628 3.518,-7.373 0,-8.043c-3.518,-0.67 -13.939,4.022 -21.107,4.022c-15.726,-0 -18.57,-4.692 -22.284,-4.022c-2.698,0.487 -5.143,5.237 0,8.043c3.714,2.027 15.052,4.118 22.284,4.118c7.174,0 17.589,-2.091 21.107,-4.118Zm-133.657,-85.132c-5.265,-0.005 -6.733,4.626 -4.021,6.966c2.711,2.339 14.082,3.486 20.29,7.07c13.619,7.863 13.736,13.349 17.287,14.625c2.58,0.927 7.072,-1.963 4.022,-6.965c-2.203,-3.613 -10.977,-11.093 -17.24,-14.709c-6.213,-3.587 -16.278,-6.983 -20.338,-6.987Zm11.355,129.659c1.358,5.086 6.211,5.306 7.769,2.081c1.558,-3.224 -0.276,-14.504 1.579,-21.428c4.07,-15.19 9.338,-16.723 9.652,-20.484c0.228,-2.732 -3.727,-6.323 -7.769,-2.082c-2.919,3.063 -7.874,13.473 -9.745,20.459c-1.857,6.93 -2.533,17.531 -1.486,21.454Zm6.185,-141.943c-5.084,-1.367 -7.701,2.726 -5.687,5.687c2.013,2.962 12.7,7.013 17.768,12.082c11.12,11.12 9.814,16.448 12.914,18.601c2.252,1.563 7.339,-0.067 5.687,-5.688c-1.193,-4.059 -7.731,-13.555 -12.845,-18.669c-5.073,-5.073 -13.916,-10.959 -17.837,-12.013Zm-22.59,128.18c-0.004,5.265 4.626,6.733 6.966,4.021c2.339,-2.711 3.487,-14.082 7.071,-20.29c7.863,-13.619 13.348,-13.736 14.624,-17.287c0.928,-2.581 -1.963,-7.073 -6.965,-4.022c-3.612,2.203 -11.093,10.976 -14.708,17.239c-3.588,6.214 -6.984,16.279 -6.988,20.339Zm-19.609,-37.662c-2.637,4.557 0.639,8.144 4.021,6.966c3.382,-1.179 10.061,-10.453 16.269,-14.037c13.619,-7.863 18.428,-5.221 21.309,-7.659c2.093,-1.771 1.836,-7.106 -4.022,-6.965c-4.229,0.101 -15.094,3.959 -21.357,7.575c-6.213,3.587 -14.187,10.606 -16.22,14.12Zm89.443,13.517c4.864,2.016 7.99,-1.703 6.377,-4.901c-1.612,-3.197 -7.856,-9.189 -8.918,-8.372c-1.063,0.817 -1.21,11.719 2.541,13.273Zm-91.312,-34.849c-3.726,3.72 -1.489,8.032 2.082,7.769c3.572,-0.263 12.423,-7.492 19.347,-9.347c15.19,-4.071 19.152,-0.275 22.566,-1.883c2.48,-1.169 3.612,-6.389 -2.082,-7.769c-4.112,-0.997 -15.605,-0.082 -22.59,1.789c-6.931,1.857 -16.449,6.573 -19.323,9.441Zm9.194,41.454c-1.367,5.084 2.726,7.701 5.688,5.687c2.961,-2.014 7.012,-12.7 12.081,-17.769c11.12,-11.12 16.449,-9.813 18.601,-12.913c1.563,-2.252 -0.066,-7.339 -5.688,-5.687c-4.059,1.193 -13.555,7.731 -18.669,12.845c-5.073,5.073 -10.958,13.916 -12.013,17.837Zm-5.477,-62.543c-4.562,2.629 -3.518,7.373 -0,8.043c3.518,0.671 13.939,-4.021 21.107,-4.021c15.726,-0 18.57,4.692 22.284,4.021c2.698,-0.486 5.143,-5.236 -0,-8.043c-3.714,-2.027 -15.052,-4.118 -22.284,-4.118c-7.174,0 -17.589,2.091 -21.107,4.118Zm138.707,-30.763c0.004,-5.265 -4.626,-6.733 -6.966,-4.022c-2.339,2.712 -3.487,14.083 -7.071,20.29c-7.863,13.619 -13.348,13.737 -14.624,17.288c-0.928,2.58 1.963,7.072 6.965,4.022c3.612,-2.203 11.093,-10.977 14.708,-17.24c3.588,-6.213 6.984,-16.278 6.988,-20.338Zm-35.814,-22.811c-2.628,-4.562 -7.372,-3.518 -8.043,-0c-0.67,3.518 4.022,13.939 4.022,21.107c-0,15.726 -4.692,18.57 -4.022,22.284c0.487,2.698 5.237,5.143 8.043,-0c2.027,-3.714 4.119,-15.052 4.119,-22.284c-0,-7.175 -2.092,-17.589 -4.119,-21.107Zm-42.42,-1.849c-4.557,-2.636 -8.144,0.64 -6.966,4.022c1.179,3.382 10.452,10.061 14.037,16.269c7.862,13.619 5.221,18.427 7.659,21.309c1.77,2.093 7.106,1.835 6.965,-4.022c-0.101,-4.23 -3.959,-15.094 -7.575,-21.357c-3.588,-6.214 -10.606,-14.187 -14.12,-16.221Zm-51.425,36.015c-5.087,1.358 -5.306,6.211 -2.082,7.769c3.225,1.558 14.505,-0.277 21.429,1.579c15.19,4.07 16.723,9.338 20.484,9.652c2.732,0.228 6.323,-3.727 2.082,-7.769c-3.063,-2.919 -13.474,-7.874 -20.459,-9.746c-6.93,-1.857 -17.531,-2.532 -21.454,-1.485Zm149.268,26.306c2.637,-4.557 -0.639,-8.143 -4.021,-6.965c-3.382,1.178 -10.061,10.452 -16.269,14.036c-13.619,7.863 -18.428,5.222 -21.309,7.659c-2.093,1.771 -1.836,7.107 4.022,6.966c4.229,-0.102 15.094,-3.96 21.357,-7.576c6.213,-3.587 14.187,-10.605 16.22,-14.12Z" style="fill:rgb(54,54,63);"/>

    <g id="Display" transform="matrix(1,0,0,1.19614,-1.88306,-18.3573)">
        <path d="M348.113,55.977L348.113,89.538C348.113,91.896 345.823,93.81 343.004,93.81L160.763,93.81C157.943,93.81 155.653,91.896 155.653,89.538L155.653,55.977C155.653,53.62 157.943,51.706 160.763,51.706L343.004,51.706C345.823,51.706 348.113,53.62 348.113,55.977Z"/>
    </g>
    <g transform="matrix(0.671277,0.387562,-0.387562,0.671277,192.046,-8.45323)">
        <path d="M395.717,52.249L547.427,315.019L128.601,556.829L-23.109,294.059L395.717,52.249Z" style="fill:rgba(0,0,0, 0.75);"/>
    </g>

</svg>
