<svg width="100%" height="100%" viewBox="0 0 500 500" version="1.1" xmlns="http://www.w3.org/2000/svg" xmlns:xlink="http://www.w3.org/1999/xlink" xml:space="preserve" xmlns:serif="http://www.serif.com/" style="fill-rule:evenodd;clip-rule:evenodd;stroke-linecap:round;stroke-linejoin:round;stroke-miterlimit:1.5;">
    <defs>
        <linearGradient id="a" x1="163.5" x2="296.6" y1="185.7" y2="416.3"
            gradientUnits="userSpaceOnUse">
            <stop offset="0" stop-color="#CCCCCC" />
            <stop offset="1" stop-color="#818181" />
        </linearGradient>
        <linearGradient id="ring" x1="163.5" x2="296.6" y1="185.7" y2="416.3"
            gradientUnits="userSpaceOnUse">
            <stop offset="0" stop-color="#FFFFFF" />
            <stop offset="1" stop-color="#656565" />
        </linearGradient>
        <linearGradient id="door" x1="163.5" x2="296.6" y1="185.7" y2="416.3"
            gradientUnits="userSpaceOnUse">
            <stop offset="0" stop-color="rgba(100,100,100, 0.7)" />
            <stop offset="1" stop-color="rgba(25, 25, 25, 0.7)" />
        </linearGradient>
        <linearGradient id="panels" x1="163.5" x2="296.6" y1="185.7" y2="416.3"
            gradientUnits="userSpaceOnUse">
            <stop offset="0" stop-color="#888888" />
            <stop offset="1" stop-color="#888888" />
        </linearGradient>
        <linearGradient id="grip" x1="163.5" x2="296.6" y1="185.7" y2="416.3"
            gradientUnits="userSpaceOnUse">
            <stop offset="0" stop-color="rgb(101, 101, 101)" />
            <stop offset="1" stop-color="rgb(101, 101, 101)" />
        </linearGradient>
        <filter id="dropShadow" x="-50%" y="-50%" width="200%" height="200%">
            <feDropShadow dx="0" dy="-9" stdDeviation="5" flood-color="black" flood-opacity="0.5"/>
        </filter>
    </defs>

    <g transform="matrix(0.645655,0,0,0.645356,88.3299,133.033)">
        <g id="Drum">
            <animateTransform attributeName="transform" dur="4s" repeatCount="indefinite" type="rotate" values="0 250 250; 360 250 250"/>
            
            <g transform="matrix(1.36543,0,0,1.36543,-262.09,-262.035)">
                <circle cx="375" cy="375" r="125" style="fill:rgb(82,82,82);"/>
            </g>
            <g transform="matrix(1.5674,0,0,1.5674,-337.831,-337.775)">
                <path d="M375,250C443.989,250 500,306.011 500,375C500,443.989 443.989,500 375,500C306.011,500 250,443.989 250,375C250,306.011 306.011,250 375,250ZM375,266.107C314.901,266.107 266.107,314.901 266.107,375C266.107,435.099 314.901,483.893 375,483.893C435.099,483.893 483.893,435.099 483.893,375C483.893,314.901 435.099,266.107 375,266.107Z" style="fill:rgb(102,102,102);"/>
            </g>
            <g transform="matrix(1.47949,3.33067e-16,3.33067e-16,-1.47949,6.3652,682.599)">
                <path d="M152.128,177.699C156.144,182.037 159.353,185.663 159.927,189.52C160.306,192.072 162.044,236.574 163.29,242.194C163.422,242.818 163.972,243.264 164.61,243.266C165.247,243.267 165.799,242.822 165.933,242.199C167.201,236.578 168.969,192.073 169.349,189.52C169.921,185.67 173.118,182.052 177.123,177.725C168.864,176.818 160.483,176.796 152.128,177.699ZM270.19,338.922C264.44,340.227 259.708,341.186 256.088,339.757C253.688,338.81 214.28,318.064 208.789,316.333C208.183,316.135 207.521,316.389 207.202,316.94C206.882,317.492 206.991,318.192 207.464,318.62C211.698,322.528 249.356,346.311 251.377,347.917C254.431,350.342 255.966,354.934 257.715,360.581C262.675,353.797 266.846,346.528 270.19,338.922ZM71.563,360.572C73.311,354.929 74.846,350.341 77.898,347.917C79.919,346.312 117.589,322.556 121.834,318.667C122.308,318.241 122.42,317.541 122.102,316.988C121.784,316.436 121.123,316.18 120.516,316.376C115.014,318.089 75.588,338.81 73.187,339.757C69.562,341.189 64.821,340.224 59.06,338.916C60.729,342.695 62.618,346.421 64.73,350.08C66.842,353.738 69.125,357.237 71.563,360.572Z" style="fill:rgb(102,102,102);"/>
            </g>
            <g transform="matrix(1.47949,0,0,1.47949,4.58447,-181.635)">
                <path d="M164.625,159.324C165.03,159.24 165.449,159.196 165.879,159.196C166.31,159.196 166.73,159.24 167.137,159.325C166.705,159.321 166.274,159.319 165.841,159.319C165.435,159.319 165.03,159.32 164.625,159.324ZM172.164,176.554L173.275,260.757C170.901,260.192 168.425,259.893 165.879,259.893C163.333,259.893 160.857,260.192 158.483,260.757L159.594,176.55C161.663,176.439 163.745,176.383 165.841,176.383C167.963,176.383 170.07,176.441 172.164,176.554ZM62.812,343.668L135.261,300.556C136.66,305.42 139.187,309.808 142.541,313.418L69.078,354.549C66.8,351.049 64.707,347.417 62.812,343.668ZM262.625,354.518L189.216,313.418C192.57,309.808 195.098,305.42 196.497,300.556L268.888,343.634C266.994,347.384 264.902,351.017 262.625,354.518Z" style="fill:rgb(102,102,102);"/>
            </g>
        </g>
        <g id="Inner">
            <animateTransform attributeName="transform" dur="6s" repeatCount="indefinite" type="rotate" values="0 250 250; 360 250 250"/>

            <g transform="matrix(1.06718,0,0,1.06718,-19.8115,-19.3439)">
                <path d="M252.775,212.534C274.771,212.534 292.629,230.392 292.629,252.388C292.629,274.385 274.771,292.243 252.775,292.243C230.778,292.243 212.92,274.385 212.92,252.388C212.92,230.392 230.778,212.534 252.775,212.534ZM264.434,222.397C261.696,222.397 259.473,224.62 259.473,227.358C259.473,230.096 261.696,232.319 264.434,232.319C267.173,232.319 269.396,230.096 269.396,227.358C269.396,224.62 267.173,222.397 264.434,222.397ZM241.219,222.397C238.481,222.397 236.257,224.62 236.257,227.358C236.257,230.096 238.481,232.319 241.219,232.319C243.957,232.319 246.18,230.096 246.18,227.358C246.18,224.62 243.957,222.397 241.219,222.397ZM284.658,257.242C286.027,254.87 285.213,251.833 282.842,250.464C280.47,249.095 277.433,249.909 276.064,252.28C274.695,254.652 275.509,257.688 277.88,259.058C280.252,260.427 283.288,259.613 284.658,257.242ZM273.05,277.347C274.419,274.976 273.605,271.939 271.234,270.57C268.862,269.2 265.826,270.014 264.457,272.386C263.087,274.757 263.901,277.794 266.272,279.163C268.644,280.532 271.681,279.718 273.05,277.347ZM232.605,277.347C233.974,279.718 237.011,280.532 239.382,279.163C241.754,277.794 242.567,274.757 241.198,272.386C239.829,270.014 236.792,269.2 234.421,270.57C232.05,271.939 231.236,274.976 232.605,277.347ZM220.997,257.242C222.366,259.613 225.403,260.427 227.775,259.058C230.146,257.688 230.96,254.652 229.591,252.28C228.221,249.909 225.185,249.095 222.813,250.464C220.442,251.833 219.628,254.87 220.997,257.242Z" style="fill:rgb(147,147,147);"/>
            </g>
            <g transform="matrix(0.356441,0,0,0.356441,190.874,146.129)">
                <path d="M58.157,342.762L149.203,288.554C150.967,287.504 152.432,286.019 153.458,284.241C154.485,282.463 155.038,280.452 155.066,278.399L156.488,172.455C159.586,172.213 162.718,172.09 165.879,172.09C169.039,172.09 172.171,172.213 175.27,172.455L176.692,278.399C176.719,280.452 177.273,282.463 178.299,284.241C179.326,286.019 180.791,287.504 182.555,288.554L273.601,342.762C270.886,348.442 267.734,353.875 264.19,359.016L171.742,307.283C169.95,306.28 167.932,305.754 165.879,305.754C163.826,305.754 161.807,306.28 160.016,307.283L67.567,359.016C64.023,353.875 60.872,348.442 58.157,342.762Z" style="fill:rgb(102,102,102);"/>
            </g>
        </g>
        <g transform="matrix(1,0,0,1.00039,0,-0.0230409)">
            <path d="M249.945,61.756C252.673,61.756 254.887,63.97 254.887,66.698C254.887,69.426 252.673,71.641 249.945,71.641C247.217,71.641 245.002,69.426 245.002,66.698C245.002,63.97 247.217,61.756 249.945,61.756ZM438.189,250C438.189,252.728 435.974,254.943 433.246,254.943C430.518,254.943 428.304,252.728 428.304,250C428.304,247.272 430.518,245.057 433.246,245.057C435.974,245.057 438.189,247.272 438.189,250ZM249.945,438.244C247.217,438.244 245.002,436.03 245.002,433.302C245.002,430.574 247.217,428.359 249.945,428.359C252.673,428.359 254.887,430.574 254.887,433.302C254.887,436.03 252.673,438.244 249.945,438.244ZM61.7,250C61.7,247.272 63.915,245.057 66.643,245.057C69.371,245.057 71.586,247.272 71.586,250C71.586,252.728 69.371,254.943 66.643,254.943C63.915,254.943 61.7,252.728 61.7,250ZM383.053,116.891C384.982,118.82 384.982,121.952 383.053,123.881C381.125,125.81 377.992,125.81 376.063,123.881C374.135,121.952 374.135,118.82 376.063,116.891C377.992,114.962 381.125,114.962 383.053,116.891ZM383.053,383.109C381.125,385.038 377.992,385.038 376.063,383.109C374.135,381.18 374.135,378.048 376.063,376.119C377.992,374.19 381.125,374.19 383.053,376.119C384.982,378.048 384.982,381.18 383.053,383.109ZM116.836,383.109C114.907,381.18 114.907,378.048 116.836,376.119C118.765,374.19 121.897,374.19 123.826,376.119C125.755,378.048 125.755,381.18 123.826,383.109C121.897,385.038 118.765,385.038 116.836,383.109ZM116.836,116.891C118.765,114.962 121.897,114.962 123.826,116.891C125.755,118.82 125.755,121.952 123.826,123.881C121.897,125.81 118.765,125.81 116.836,123.881C114.907,121.952 114.907,118.82 116.836,116.891ZM344.067,413.024C341.704,414.388 338.679,413.578 337.315,411.215C335.951,408.853 336.762,405.827 339.124,404.463C341.487,403.099 344.512,403.91 345.876,406.273C347.24,408.635 346.429,411.66 344.067,413.024ZM86.92,344.122C85.556,341.76 86.367,338.734 88.729,337.37C91.092,336.006 94.117,336.817 95.481,339.18C96.845,341.542 96.034,344.567 93.672,345.931C91.31,347.295 88.284,346.485 86.92,344.122ZM155.822,86.976C158.185,85.612 161.21,86.422 162.574,88.785C163.938,91.147 163.128,94.173 160.765,95.537C158.403,96.901 155.377,96.09 154.013,93.727C152.649,91.365 153.46,88.34 155.822,86.976ZM412.969,155.878C414.333,158.24 413.522,161.266 411.16,162.63C408.797,163.994 405.772,163.183 404.408,160.82C403.044,158.458 403.855,155.433 406.217,154.069C408.58,152.705 411.605,153.515 412.969,155.878ZM68.114,298.721C67.408,296.086 68.974,293.374 71.609,292.668C74.244,291.962 76.957,293.528 77.663,296.163C78.369,298.798 76.803,301.51 74.168,302.216C71.533,302.922 68.82,301.356 68.114,298.721ZM201.223,68.17C203.858,67.464 206.571,69.03 207.277,71.665C207.983,74.3 206.417,77.012 203.782,77.718C201.147,78.424 198.434,76.858 197.728,74.223C197.022,71.588 198.588,68.876 201.223,68.17ZM431.775,201.279C432.481,203.914 430.915,206.626 428.28,207.332C425.645,208.038 422.932,206.472 422.226,203.837C421.52,201.202 423.086,198.49 425.721,197.784C428.356,197.078 431.069,198.644 431.775,201.279ZM298.666,431.83C296.031,432.536 293.318,430.97 292.612,428.335C291.906,425.7 293.472,422.988 296.107,422.282C298.742,421.576 301.455,423.142 302.161,425.777C302.867,428.412 301.301,431.124 298.666,431.83ZM298.666,68.17C301.301,68.876 302.867,71.588 302.161,74.223C301.455,76.858 298.742,78.424 296.107,77.718C293.472,77.012 291.906,74.3 292.612,71.665C293.318,69.03 296.031,67.464 298.666,68.17ZM431.775,298.721C431.069,301.356 428.356,302.922 425.721,302.216C423.086,301.51 421.52,298.798 422.226,296.163C422.932,293.528 425.645,291.962 428.28,292.668C430.915,293.374 432.481,296.086 431.775,298.721ZM201.223,431.83C198.588,431.124 197.022,428.412 197.728,425.777C198.434,423.142 201.147,421.576 203.782,422.282C206.417,422.988 207.983,425.7 207.277,428.335C206.571,430.97 203.858,432.536 201.223,431.83ZM68.114,201.279C68.82,198.644 71.533,197.078 74.168,197.784C76.803,198.49 78.369,201.202 77.663,203.837C76.957,206.472 74.244,208.038 71.609,207.332C68.974,206.626 67.408,203.914 68.114,201.279ZM412.969,344.122C411.605,346.485 408.58,347.295 406.217,345.931C403.855,344.567 403.044,341.542 404.408,339.18C405.772,336.817 408.797,336.006 411.16,337.37C413.522,338.734 414.333,341.76 412.969,344.122ZM155.822,413.024C153.46,411.66 152.649,408.635 154.013,406.273C155.377,403.91 158.403,403.099 160.765,404.463C163.128,405.827 163.938,408.853 162.574,411.215C161.21,413.578 158.185,414.388 155.822,413.024ZM86.92,155.878C88.284,153.515 91.31,152.705 93.672,154.069C96.034,155.433 96.845,158.458 95.481,160.82C94.117,163.183 91.092,163.994 88.729,162.63C86.367,161.266 85.556,158.24 86.92,155.878ZM344.067,86.976C346.429,88.34 347.24,91.365 345.876,93.727C344.512,96.09 341.487,96.901 339.124,95.537C336.762,94.173 335.951,91.147 337.315,88.785C338.679,86.422 341.704,85.612 344.067,86.976Z"/>
        </g>
    </g>
    <g>
        <style>
          .path-0{
            animation:pathAnim-0 4s;
            animation-timing-function: linear;
            animation-iteration-count: infinite;
          }
          @keyframes pathAnim-0{
            0%{
              d: path("M810.581,83.361C838.134,108.166 855.469,144.104 855.469,184.059C855.469,258.827 794.767,319.528 720,319.528C645.233,319.528 584.531,258.827 584.531,184.059C584.531,183.705 584.533,183.351 584.535,182.997C634.405,174.509 674.606,114.865 725,93C751.697,81.417 781.254,80.435 810.581,83.361Z");
            }
            25%{
              d: path("M854.581,168.483C855.168,173.594 855.469,178.792 855.469,184.059C855.469,258.827 794.767,319.528 720,319.528C645.233,319.528 584.531,258.827 584.531,184.059C584.531,171.145 586.342,158.65 589.724,146.814C633.638,173.531 682.239,201.605 728,204C772.071,206.307 813.509,184.798 854.581,168.483Z");
            }
            50%{
              d: path("M844.677,131.023C851.624,147.315 855.469,165.242 855.469,184.059C855.469,258.827 794.767,319.528 720,319.528C645.233,319.528 584.531,258.827 584.531,184.059C584.531,181.697 584.592,179.348 584.712,177.015C642.605,139.918 701.82,86.378 745,78C787.899,69.676 814.972,105.927 844.677,131.023Z");
            }
            75%{
              d: path(M854.423,167.163C855.113,172.699 855.469,178.338 855.469,184.059C855.469,258.827 794.767,319.528 720,319.528C645.233,319.528 584.531,258.827 584.531,184.059C584.531,155.761 593.227,129.477 608.09,107.737C650.882,134.948 691.578,191.288 735,204C772.99,215.122 813.066,192.85 854.423,167.163Z");
            }
            100%{
              d: path("M810.581,83.361C838.134,108.166 855.469,144.104 855.469,184.059C855.469,258.827 794.767,319.528 720,319.528C645.233,319.528 584.531,258.827 584.531,184.059C584.531,183.705 584.533,183.351 584.535,182.997C634.405,174.509 674.606,114.865 725,93C751.697,81.417 781.254,80.435 810.581,83.361Z");
            }
          }
        </style>
            <defs>
                <linearGradient id="gradient" x1="50%" y1="0%" x2="50%" y2="100%">
                <stop offset="5%" stop-color="#8ed1fc"/>
                <stop offset="95%" stop-color="#0693e3"/>
                </linearGradient>
            </defs>
        <g transform="matrix(1,0,0,1,-470,110.605)">
            <path d="M810.581,83.361C838.134,108.166 855.469,144.104 855.469,184.059C855.469,258.827 794.767,319.528 720,319.528C645.233,319.528 584.531,258.827 584.531,184.059C584.531,183.705 584.533,183.351 584.535,182.997C634.405,174.509 674.606,114.865 725,93C751.697,81.417 781.254,80.435 810.581,83.361Z" stroke="none" stroke-width="0" fill="url(#gradient)" fill-opacity="0.53" class="transition-all duration-300 ease-in-out delay-150 path-0" />
        </g>
        <style>
          .path-1{
            animation:pathAnim-1 4s;
            animation-timing-function: linear;
            animation-iteration-count: infinite;
          }
          @keyframes pathAnim-1{
            0%{
              d: path("M840.958,355.69C818.621,399.838 772.82,430.133 720,430.133C674.34,430.133 633.925,407.495 609.379,372.839C644.447,363.938 676.521,361.754 719,360C755.206,358.505 798.97,357.324 840.958,355.69Z");
            }
            25%{
              d: path("M820.088,385.918C795.307,413.08 759.629,430.133 720,430.133C705.643,430.133 691.804,427.895 678.814,423.749C687.155,422.353 695.549,420.757 704,419C742.675,410.96 782.543,399.551 820.088,385.918Z");
            }
            50%{
              d: path("M765.018,422.462C750.93,427.43 735.778,430.133 720,430.133C689.777,430.133 661.853,420.215 639.307,403.458C678.618,413.405 716.913,422.058 746,423C752.811,423.221 759.117,423.018 765.018,422.462Z");
            }
            75%{
              d: path("M855.137,304.213C850.231,374.532 791.557,430.133 720,430.133C691.663,430.133 665.346,421.414 643.589,406.514C660.341,404.057 677.239,399.489 694,392C747.471,368.107 799.538,314.486 855.137,304.213Z");
            }
            100%{
              d: path("M840.958,355.69C818.621,399.838 772.82,430.133 720,430.133C674.34,430.133 633.925,407.495 609.379,372.839C644.447,363.938 676.521,361.754 719,360C755.206,358.505 798.97,357.324 840.958,355.69Z");
            }
          }
        </style>
            <defs>
                <linearGradient id="gradient" x1="50%" y1="0%" x2="50%" y2="100%">
                    <stop offset="5%" stop-color="#8ed1fc"  />
                    <stop offset="95%" stop-color="#0693e3" />
                </linearGradient>
            </defs>
        <g transform="matrix(1,0,0,1,-470,0)">
            <path d="M840.958,355.69C818.621,399.838 772.82,430.133 720,430.133C674.34,430.133 633.925,407.495 609.379,372.839C644.447,363.938 676.521,361.754 719,360C755.206,358.505 798.97,357.324 840.958,355.69Z" stroke="none" stroke-width="0" fill="url(#gradient)" fill-opacity="1" class="transition-all duration-300 ease-in-out delay-150 path-1" />
        </g>
    </g>
    <path d="M 0,600 L 0,350 C 66.15868924889543,316.5524668630339 132.31737849779086,283.10493372606777 195,305 C 257.68262150220914,326.89506627393223 316.8891752577319,404.1327319587629 381,424 C 445.1108247422681,443.8672680412371 514.1259204712813,406.36413843888073 568,386 C 621.8740795287187,365.63586156111927 660.6071428571429,362.4107142857143 719,360 C 777.3928571428571,357.5892857142857 855.4455081001473,355.99300441826216 914,352 C 972.5544918998527,348.00699558173784 1011.610824742268,341.6172680412371 1071,339 C 1130.389175257732,336.3827319587629 1210.1111929307806,337.5379234167894 1275,340 C 1339.8888070692194,342.4620765832106 1389.9444035346096,346.2310382916053 1440,350 L 1440,600 L 0,600 Z" stroke="none" stroke-width="0" fill="url(#gradient)" fill-opacity="1" class="transition-all duration-300 ease-in-out delay-150 path-1" data-darkreader-inline-stroke="" style="--darkreader-inline-fill: #0576b6; --darkreader-inline-stroke: none;">
        
    </path>
        
    <g id="washer" transform="matrix(1.00313,0,0,1.05859,8.38721,-31.3344)">
        <path 
            fill="url(#a)"
            d="M420.393,106.871L420.393,424.657C420.393,453.234 395.909,476.434 365.753,476.434L115.968,476.434C85.811,476.434 61.327,453.234 61.327,424.657L61.327,106.871C61.327,78.294 85.811,55.093 115.968,55.093L365.753,55.093C395.909,55.093 420.393,78.294 420.393,106.871ZM240.86,173.127C162.331,173.127 98.576,233.542 98.576,307.956C98.576,382.371 162.331,442.786 240.86,442.786C319.389,442.786 383.144,382.371 383.144,307.956C383.144,233.542 319.389,173.127 240.86,173.127Z"/>
    </g>

    <g id="Program-selector" serif:id="Program selector" transform="matrix(0.862292,0,0,0.862292,34.7264,33.7142)">
        <circle cx="252.175" cy="53.611" r="31.582" style="fill:url(#panels);" />
    </g>
    <g id="Ring" transform="matrix(1.01132,0,0,1.01132,-15.1272,-13.3219)">
        <path 
            fill="url(#ring)"
            d="M262.159,161.81C340.933,161.81 404.888,225.765 404.888,304.539C404.888,383.313 340.933,447.268 262.159,447.268C183.385,447.268 119.431,383.313 119.431,304.539C119.431,225.765 183.385,161.81 262.159,161.81ZM262.159,179.483C193.139,179.483 137.103,235.519 137.103,304.539C137.103,373.559 193.139,429.595 262.159,429.595C331.18,429.595 387.215,373.559 387.215,304.539C387.215,235.519 331.18,179.483 262.159,179.483Z"/>
    </g>
    <g id="Program" transform="matrix(1,0,0,1,3.88988,4.2037)">
        <path d="M394.344,68.483L394.344,82.995C394.344,87 391.093,90.251 387.088,90.251L302.114,90.251C298.109,90.251 294.857,87 294.857,82.995L294.857,68.483C294.857,64.478 298.109,61.227 302.114,61.227L387.088,61.227C391.093,61.227 394.344,64.478 394.344,68.483Z" style="fill:url(#panels);"/>
    </g>
    
    <g id="Detergent-grip" serif:id="Detergent grip" transform="matrix(0.852528,0,0,1,35.1435,2.44691)">
        <path d="M199.406,84.752C199.406,84.752 195.31,91.34 193.345,91.702C196.85,90.804 199.406,88.031 199.406,84.752ZM192.341,91.904C184.601,93.58 177.865,97.956 173.17,103.996C163.114,116.821 147.72,115.336 131.422,115.336L87.719,115.421C86.391,115.424 85.117,114.898 84.177,113.96C83.237,113.022 82.709,111.749 82.709,110.421L82.709,84.752C82.709,88.757 86.523,92.008 91.221,92.008L190.894,92.008C191.388,92.008 191.871,91.972 192.341,91.904Z" style="fill:url(#grip);"/>
    </g>
    <g id="Detergent" transform="matrix(-1,1.22465e-16,-1.22465e-16,-1,500,155.682)" filter="url(#dropShadow)">
        <path d="M394.344,68.483L394.344,82.995C394.344,87 391.093,90.251 387.088,90.251L302.114,90.251C298.109,90.251 294.857,87 294.857,82.995L294.857,68.483C294.857,64.478 298.109,61.227 302.114,61.227L387.088,61.227C391.093,61.227 394.344,64.478 394.344,68.483Z" style="fill:url(#panels);" />
    </g>
    <path id="Detergent-cover" serif:id="Detergent cover" fill="url(#a)" d="M216.725,70.763L216.725,106.67C216.725,116.578 208.68,124.623 198.771,124.623L108.257,124.623C98.348,124.623 90.304,116.578 90.304,106.67L90.304,70.763C90.304,60.854 98.348,52.81 108.257,52.81L198.771,52.81C208.68,52.81 216.725,60.854 216.725,70.763ZM205.143,87.199L205.143,72.687C205.143,68.682 201.891,65.431 197.886,65.431L112.912,65.431C108.907,65.431 105.656,68.682 105.656,72.687L105.656,112.868C105.656,114.196 106.106,115.469 106.907,116.407C107.708,117.345 108.795,117.871 109.926,117.868L147.185,117.783C161.079,117.783 174.203,119.268 182.776,106.443C186.779,100.403 192.521,96.027 199.12,94.351C199.412,94.301 199.697,94.233 199.976,94.149C200.025,94.136 200.076,94.121 200.126,94.102C203.036,93.157 205.143,90.422 205.143,87.199Z"/>
    
    <g id="Cover" transform="matrix(0.876179,0,0,0.876179,20.3014,27.8339)">
        <circle cx="262.159" cy="304.539" r="146.729" style="fill:url(#door);"/>
    </g>

</svg>
